<svg xmlns="http://www.w3.org/2000/svg" width="1200" height="630" viewBox="0 0 1200 630"><title>Awesome Jev — System-1 Agent Architecture Radar</title><rect width="1200" height="630" fill="#fafaf8"/><path d="M56 142h1088M56 550h1088" stroke="#d5dbcf"/><rect x="56" y="54" width="58" height="58" rx="14" fill="#263422"/><path d="m91 64-22 27h17l-7 17 26-32H89l5-12" fill="#d7fa91"/><g font-family="Inter,Helvetica Neue,Arial,sans-serif" fill="#20271e"><text x="134" y="96" font-size="38" font-weight="650" letter-spacing="-1">Awesome Jev</text><text x="56" y="267" font-size="66" font-weight="600" letter-spacing="-2">Let LLMs think.</text><text x="56" y="350" font-size="66" font-weight="650" letter-spacing="-2">Let Jev choose.</text><text x="59" y="413" font-size="23" fill="#53614d">System-1 Agent Architecture Radar</text><text x="59" y="463" font-size="19" fill="#53614d">Community projects. Implementation notes. Source evidence.</text><text x="56" y="591" font-size="18" fill="#53614d">github.com/logicrw/awesome-jev-projects</text><text x="1009" y="591" font-size="18" fill="#7b5b28">@0xLogicrw</text></g><g transform="translate(847 200)"><rect x="-28" y="3" width="242" height="280" rx="16" fill="#e3e7df" stroke="#a5af9d" transform="rotate(-8 93 143)"/><rect x="-5" y="-5" width="242" height="280" rx="16" fill="#f0f2ed" stroke="#a5af9d" transform="rotate(6 116 135)"/><rect width="242" height="280" rx="16" fill="#fcfcf9" stroke="#859578"/><g font-family="Inter,Helvetica Neue,Arial,sans-serif"><text x="24" y="36" font-size="15" fill="#53614d">choice</text><circle cx="210" cy="31" r="4" fill="#7b5b28"/><text x="24" y="93" font-size="25" font-weight="600" fill="#20271e">Next step</text><rect x="22" y="119" width="198" height="38" rx="7" fill="#d7fa91"/><text x="36" y="144" font-size="16" fill="#223018">Continue</text><path d="m188 135 5 5 9-10" stroke="#365321" stroke-width="2" fill="none"/><text x="36" y="190" font-size="16" fill="#53614d">Retry</text><path d="M24 211h194" stroke="#d5dbcf"/><text x="36" y="240" font-size="16" fill="#53614d">Skip</text></g></g></svg>
